# xmcd
#
# Track frame offsets:
# 150
# 11887
# 27410
# 42560
# 62272
# 80357
# 92537
# 114527
# 131520
# 147202
# 162067
# 177495
# 196377
# 214990
#
# Disc length: 3094 seconds
#
#
# Revision: 0
# Processed by: cddbd v1.5.1PL0 Copyright (c) Steve Scherf et al.
# Submitted via: FreeRIP 2.942 
#
DISCID=bf0c140e
DTITLE=Pedro Paulo and Matheus - Deixa
DYEAR=1900
DGENRE=Sertanejo
TTITLE0=Colibri
TTITLE1=Deixa
TTITLE2=Toalha de Banho
TTITLE3=Luz do Amanhecer
TTITLE4=Mulher Menina
TTITLE5=A Queda do Peão
TTITLE6=Caixinha Embrulhada
TTITLE7=Nao Sei se Vou Lá
TTITLE8=Chora Coração
TTITLE9=Garota Adrenalina
TTITLE10=Razão da Minha Vida
TTITLE11=Minta, Finja
TTITLE12=De Manhã Sou Feliz
TTITLE13=Meu Desejo
EXTD=
EXTT0=
EXTT1=
EXTT2=
EXTT3=
EXTT4=
EXTT5=
EXTT6=
EXTT7=
EXTT8=
EXTT9=
EXTT10=
EXTT11=
EXTT12=
EXTT13=
PLAYORDER=
